<?xml version="1.0" standalone="no"?>
<!DOCTYPE svg PUBLIC "-//W3C//DTD SVG 20010904//EN"
 "http://www.w3.org/TR/2001/REC-SVG-20010904/DTD/svg10.dtd">
<svg version="1.0" xmlns="http://www.w3.org/2000/svg"
 width="1012.000000pt" height="1012.000000pt" viewBox="0 0 1012.000000 1012.000000"
 preserveAspectRatio="xMidYMid meet">
<metadata>
Created by potrace 1.14, written by Peter Selinger 2001-2017
</metadata>
<g transform="translate(0.000000,1012.000000) scale(0.100000,-0.100000)"
fill="#000000" stroke="none">
<path d="M29 6338 c-4 -159 0 -2571 5 -2575 8 -9 1013 -8 1146 1 123 8 148 11
283 32 222 35 462 129 624 243 225 159 387 420 434 699 6 37 13 78 16 92 9 50
11 366 2 430 -19 140 -26 172 -61 280 -121 374 -399 620 -834 739 -113 31
-131 35 -249 52 -38 5 -83 12 -100 16 -16 3 -308 8 -647 10 l-618 5 -1 -24z
m1097 -592 c51 -3 98 -8 105 -10 8 -3 30 -7 49 -10 67 -9 155 -37 225 -72 178
-88 276 -236 310 -469 7 -48 7 -208 0 -250 -3 -16 -8 -46 -11 -65 -34 -205
-167 -362 -374 -441 -27 -10 -59 -20 -72 -23 -101 -20 -130 -25 -183 -32 -74
-8 -392 -12 -404 -5 -4 3 -8 315 -8 693 l0 687 31 3 c43 4 224 1 332 -6z"/>
<path d="M2972 5060 c-1 -715 2 -1300 6 -1301 9 -1 1964 -1 1979 0 8 1 11 76
11 291 0 160 -3 290 -7 291 -3 0 -286 1 -628 1 -452 0 -623 4 -624 12 -4 68 0
418 5 423 3 3 284 6 624 6 l619 0 0 279 0 278 -26 1 c-14 0 -295 1 -623 1
l-598 1 -1 26 c-2 133 0 394 4 398 3 3 287 5 630 5 l625 0 0 294 0 294 -998 0
-998 0 0 -1300z"/>
<path d="M5490 6353 c-1 -12 -1 -2512 -1 -2558 l1 -40 360 1 c198 0 363 4 367
7 3 4 6 195 6 424 l0 418 266 1 c355 0 441 7 607 49 419 106 646 379 658 794
13 449 -216 747 -661 860 -43 11 -100 23 -128 27 -27 3 -59 9 -70 12 -33 9
-1405 14 -1405 5z m1280 -567 c60 -9 127 -36 173 -70 26 -19 77 -93 84 -121
19 -76 20 -97 9 -179 -19 -132 -124 -221 -288 -241 -54 -7 -133 -8 -409 -6
l-116 1 0 313 0 312 246 -1 c135 0 271 -4 301 -8z"/>
<path d="M7903 6055 c0 -168 4 -305 8 -306 5 0 169 0 364 -1 l355 0 1 -32 c0
-17 0 -464 0 -993 0 -899 1 -963 17 -964 22 -1 705 -1 714 0 4 1 7 434 7 964
0 529 0 976 1 993 l0 32 318 0 c174 1 337 1 362 1 l45 1 0 303 0 302 -1096 3
-1097 2 1 -305z"/>
</g>
</svg>
